<svg width="106" height="24" viewBox="0 0 106 24" fill="none" xmlns="http://www.w3.org/2000/svg">
<path d="M5.856 3.456H0.288V0.912H14.568V3.456H8.976V18H5.856V3.456ZM21.1209 5.592C21.5849 5.592 21.9849 5.656 22.3209 5.784L22.2969 8.52C21.7849 8.312 21.2569 8.208 20.7129 8.208C19.6889 8.208 18.9049 8.504 18.3609 9.096C17.8329 9.688 17.5689 10.472 17.5689 11.448V18H14.5929V9.312C14.5929 8.032 14.5289 6.888 14.4009 5.88H17.2089L17.4489 8.016C17.7529 7.232 18.2329 6.632 18.8889 6.216C19.5449 5.8 20.2889 5.592 21.1209 5.592ZM35.349 5.88V18H32.397V16.056C32.029 16.728 31.501 17.256 30.813 17.64C30.125 18.008 29.341 18.192 28.461 18.192C27.405 18.192 26.469 17.936 25.653 17.424C24.837 16.912 24.205 16.184 23.757 15.24C23.309 14.296 23.085 13.2 23.085 11.952C23.085 10.704 23.309 9.6 23.757 8.64C24.221 7.664 24.861 6.912 25.677 6.384C26.493 5.84 27.421 5.568 28.461 5.568C29.341 5.568 30.125 5.76 30.813 6.144C31.501 6.512 32.029 7.032 32.397 7.704V5.88H35.349ZM29.277 15.84C30.269 15.84 31.037 15.496 31.581 14.808C32.125 14.12 32.397 13.152 32.397 11.904C32.397 10.624 32.125 9.64 31.581 8.952C31.037 8.264 30.261 7.92 29.253 7.92C28.261 7.92 27.485 8.28 26.925 9C26.381 9.704 26.109 10.688 26.109 11.952C26.109 13.2 26.381 14.16 26.925 14.832C27.485 15.504 28.269 15.84 29.277 15.84ZM44.3524 2.712C43.0564 2.712 42.4084 3.424 42.4084 4.848V5.88H45.1204V8.136H42.4084V18H39.4084V8.136H37.1044V5.88H39.4084V4.704C39.4084 3.264 39.7684 2.16 40.4884 1.392C41.2244 0.607999 42.2724 0.215999 43.6324 0.215999C44.3844 0.215999 45.0164 0.311999 45.5284 0.503999V2.88C45.0804 2.768 44.6884 2.712 44.3524 2.712ZM58.9037 5.88V18H55.9517V16.056C55.5837 16.728 55.0557 17.256 54.3677 17.64C53.6797 18.008 52.8957 18.192 52.0157 18.192C50.9597 18.192 50.0237 17.936 49.2077 17.424C48.3917 16.912 47.7597 16.184 47.3117 15.24C46.8637 14.296 46.6397 13.2 46.6397 11.952C46.6397 10.704 46.8637 9.6 47.3117 8.64C47.7757 7.664 48.4157 6.912 49.2317 6.384C50.0477 5.84 50.9757 5.568 52.0157 5.568C52.8957 5.568 53.6797 5.76 54.3677 6.144C55.0557 6.512 55.5837 7.032 55.9517 7.704V5.88H58.9037ZM52.8317 15.84C53.8237 15.84 54.5917 15.496 55.1357 14.808C55.6797 14.12 55.9517 13.152 55.9517 11.904C55.9517 10.624 55.6797 9.64 55.1357 8.952C54.5917 8.264 53.8157 7.92 52.8077 7.92C51.8157 7.92 51.0397 8.28 50.4797 9C49.9357 9.704 49.6637 10.688 49.6637 11.952C49.6637 13.2 49.9357 14.16 50.4797 14.832C51.0397 15.504 51.8237 15.84 52.8317 15.84ZM62.1711 0.335999H65.1471V18H62.1711V0.335999ZM80.1409 5.88V17.616C80.1409 19.504 79.6209 20.936 78.5809 21.912C77.5409 22.888 76.0129 23.376 73.9969 23.376C72.1249 23.376 70.4769 22.984 69.0529 22.2L69.5329 19.92C71.0049 20.688 72.4689 21.072 73.9249 21.072C76.0849 21.072 77.1649 20 77.1649 17.856V15.456C76.7969 16.112 76.2609 16.648 75.5569 17.064C74.8529 17.464 74.0609 17.664 73.1809 17.664C72.1249 17.664 71.1809 17.416 70.3489 16.92C69.5329 16.408 68.8929 15.696 68.4289 14.784C67.9809 13.856 67.7569 12.8 67.7569 11.616C67.7569 10.432 67.9809 9.384 68.4289 8.472C68.8929 7.544 69.5329 6.832 70.3489 6.336C71.1809 5.824 72.1249 5.568 73.1809 5.568C74.0769 5.568 74.8689 5.76 75.5569 6.144C76.2609 6.512 76.7969 7.032 77.1649 7.704V5.88H80.1409ZM73.9729 15.312C74.9649 15.312 75.7409 14.984 76.3009 14.328C76.8769 13.672 77.1649 12.768 77.1649 11.616C77.1649 10.464 76.8849 9.56 76.3249 8.904C75.7649 8.248 74.9809 7.92 73.9729 7.92C72.9809 7.92 72.1969 8.248 71.6209 8.904C71.0609 9.56 70.7809 10.464 70.7809 11.616C70.7809 12.768 71.0609 13.672 71.6209 14.328C72.1969 14.984 72.9809 15.312 73.9729 15.312ZM94.974 5.88V18H92.022V16.056C91.654 16.728 91.126 17.256 90.438 17.64C89.75 18.008 88.966 18.192 88.086 18.192C87.03 18.192 86.094 17.936 85.278 17.424C84.462 16.912 83.83 16.184 83.382 15.24C82.934 14.296 82.71 13.2 82.71 11.952C82.71 10.704 82.934 9.6 83.382 8.64C83.846 7.664 84.486 6.912 85.302 6.384C86.118 5.84 87.046 5.568 88.086 5.568C88.966 5.568 89.75 5.76 90.438 6.144C91.126 6.512 91.654 7.032 92.022 7.704V5.88H94.974ZM88.902 15.84C89.894 15.84 90.662 15.496 91.206 14.808C91.75 14.12 92.022 13.152 92.022 11.904C92.022 10.624 91.75 9.64 91.206 8.952C90.662 8.264 89.886 7.92 88.878 7.92C87.886 7.92 87.11 8.28 86.55 9C86.006 9.704 85.734 10.688 85.734 11.952C85.734 13.2 86.006 14.16 86.55 14.832C87.11 15.504 87.894 15.84 88.902 15.84ZM104.769 5.592C105.233 5.592 105.633 5.656 105.969 5.784L105.945 8.52C105.433 8.312 104.905 8.208 104.361 8.208C103.337 8.208 102.553 8.504 102.009 9.096C101.481 9.688 101.217 10.472 101.217 11.448V18H98.2414V9.312C98.2414 8.032 98.1774 6.888 98.0494 5.88H100.857L101.097 8.016C101.401 7.232 101.881 6.632 102.537 6.216C103.193 5.8 103.937 5.592 104.769 5.592Z" fill="white"/>
</svg>
